inDegrees=no
num_controls=7
num_derivatives=13
num_iterations=117
num_multipliers=7
num_parameters=0
num_slacks=7
num_states=26
objective=0.453557
objective_accelerations=0.047971
objective_balance=0.000957
objective_effort=0.037753
objective_height=0.360912
objective_ligament=0.005964
solver_duration=1329.847803
status=Solve_Succeeded
success=true
DataType=double
version=3
OpenSimVersion=4.5
endheader
time	/jointset/ground_pelvis/pelvis_tilt/value	/jointset/ground_pelvis/pelvis_tx/value	/jointset/ground_pelvis/pelvis_ty/value	/jointset/hip_r/hip_flexion_r/value	/jointset/hip_r/hip_adduction_r/value	/jointset/hip_r/hip_rotation_r/value	/jointset/back/lumbar_extension/value	/jointset/patellofemoral_r/patellar_flexion_r/value	/jointset/knee_r/knee_flexion_r/value	/jointset/knee_r/knee_adduction_r/value	/jointset/knee_r/knee_rotation_r/value	/jointset/ankle_r/ankle_angle_r/value	/jointset/subtalar_r/subtalar_angle_r/value	/jointset/ground_pelvis/pelvis_tilt/speed	/jointset/ground_pelvis/pelvis_tx/speed	/jointset/ground_pelvis/pelvis_ty/speed	/jointset/hip_r/hip_flexion_r/speed	/jointset/hip_r/hip_adduction_r/speed	/jointset/hip_r/hip_rotation_r/speed	/jointset/back/lumbar_extension/speed	/jointset/patellofemoral_r/patellar_flexion_r/speed	/jointset/knee_r/knee_flexion_r/speed	/jointset/knee_r/knee_adduction_r/speed	/jointset/knee_r/knee_rotation_r/speed	/jointset/ankle_r/ankle_angle_r/speed	/jointset/subtalar_r/subtalar_angle_r/speed	/forceset/tau_hip_flexion_r	/forceset/tau_hip_adduction_r	/forceset/tau_hip_rotation_r	/forceset/tau_knee_flexion_r	/forceset/tau_ankle_angle_r	/forceset/tau_subtalar_angle_r	/forceset/tau_lumbar_extension	lambda_cid13_p0	lambda_cid14_p0	lambda_cid14_p1	lambda_cid14_p2	lambda_cid14_p3	lambda_cid14_p4	lambda_cid14_p5	/jointset/ground_pelvis/pelvis_tilt/accel	/jointset/ground_pelvis/pelvis_tx/accel	/jointset/ground_pelvis/pelvis_ty/accel	/jointset/hip_r/hip_flexion_r/accel	/jointset/hip_r/hip_adduction_r/accel	/jointset/hip_r/hip_rotation_r/accel	/jointset/back/lumbar_extension/accel	/jointset/patellofemoral_r/patellar_flexion_r/accel	/jointset/knee_r/knee_flexion_r/accel	/jointset/knee_r/knee_adduction_r/accel	/jointset/knee_r/knee_rotation_r/accel	/jointset/ankle_r/ankle_angle_r/accel	/jointset/subtalar_r/subtalar_angle_r/accel	gamma_cid13_p0	gamma_cid14_p0	gamma_cid14_p1	gamma_cid14_p2	gamma_cid14_p3	gamma_cid14_p4	gamma_cid14_p5
0	-0.002127133054967575	0.1290376225001682	0.9340591677586281	0.1934211968871041	-0.2200335488029954	-0.2408334222527839	-0.2903787966825928	0.2311786273363408	0.2311786273363406	0.1148712968998875	0.1676192968233355	0.089344008118978	0.07396387899113202	0	0	0	0	0	0	0	0	0	0	0	0	0	0.1102644341013566	-0.04181302574400153	0.0009060629049640525	-0.245445067162345	0.1292495219575884	-0.08620397762541604	-0.02997862786651563	-29.7090939802605	-4.774478312328938	-34.10064439600294	1.091117240130204	0.5882634746867161	-608.1626065383363	38.0614848806448	-1.810720547953738	-1.827651299029884	-0.8759972216585166	9.922441038263973	-0.1839744494932909	2.205298598130179	-6.376946425711017	10.37330814249104	10.37330814249102	-2.322597876125366	0.4808481171764577	2.846695883792321	0.5929080205713595	2.87062051590994e-08	1.97745326294122e-08	-2.313884053177547e-07	1.475195521690775e-07	4.770709869161312e-09	1.451330676416601e-07	-1.827571747009846e-07
0.01	-0.002211627622869116	0.1289477850822173	0.9340166180975954	0.1939036426400041	-0.2200409490294362	-0.2407227217876076	-0.2906986445413203	0.2316870365837258	0.231687036583723	0.1147542236314035	0.1676392866662293	0.08948422018265552	0.07399511218287526	-0.01683950079294445	-0.01783742229311477	-0.008483382871052072	0.09600362409424404	-0.001460885356842403	0.0220612287243274	-0.06349680432906535	0.1011973833474471	0.1011973833474464	-0.02331865570782102	0.003930583813478759	0.02796571354119786	0.006249415048364558	0.1065992072498731	-0.05466144392876479	0.001242960209747678	-0.2432027912998548	0.1241322253883544	-0.07426846965281156	-0.02638326604181141	-29.71496831685776	-5.796511727971905	-28.86667574663867	-0.005268988745282884	-0.06639612006982613	-609.917617138506	48.88685135047739	-1.611655732106405	-1.742277545706104	-0.830497392894825	9.366493510698236	-0.1242822168185391	2.194737462205605	-6.265132324104978	9.920277770214609	9.920277770214575	-2.322123813354818	0.3390861477195211	2.760009611772569	0.6413556871508316	4.560329596300948e-08	5.870697881070334e-09	-3.348184158379254e-07	2.100265201748538e-07	3.00659816414208e-08	1.193700086022827e-08	-2.692419849298497e-07
0.02	-0.00246273537612578	0.1286834754710844	0.9338900368932388	0.195331558716986	-0.2200623854370527	-0.2403937685446641	-0.291639277420858	0.2331928845324519	0.2331928845324503	0.114406838926796	0.1676965668741163	0.08990178948624253	0.07408891901313856	-0.03332263707156206	-0.034894438636393	-0.016806308664748	0.1890940648162288	-0.002807236235238991	0.04365055555351824	-0.1241570041621603	0.1994877402686166	0.1994877402686191	-0.04606228722541685	0.007458072998395104	0.05547144798195811	0.01251472770400256	0.1029339803983856	-0.06750986211352525	0.001579857514536105	-0.2409605154373633	0.119014928819123	-0.06233296168020302	-0.02278790421711166	-29.73202518541968	-6.738280773542023	-23.63441086471259	-1.08338372068829	-0.7018826811802585	-610.398298836771	59.45847642193108	-1.739447645088394	-1.671570109062559	-0.8439058061872876	9.339804363812114	-0.1610675538041253	2.110918219102864	-5.809625526516967	9.791902857235494	9.791902857236289	-2.207593038080332	0.4002291914639727	2.754700063704815	0.5960875420260567	6.250038676691957e-08	-8.033136867271536e-09	-4.382484263580962e-07	2.725334881806302e-07	5.53612534136803e-08	-1.212590659212035e-07	-3.557267951587149e-07
0.03	-0.002877060182623475	0.1282519264755839	0.9336807038202036	0.1976768294989347	-0.2200972783672019	-0.2398520754046399	-0.293172713258147	0.2356675753672978	0.2356675753672934	0.1138360819911844	0.1677881701128615	0.09059135141552059	0.07424455509399482	-0.04945889597784538	-0.0513414095353929	-0.02505871012179708	0.2795239272197776	-0.004193429856577592	0.06459536279026494	-0.1821396787190282	0.2949917105043907	0.2949917105043935	-0.06789585426262192	0.01082540179301708	0.08228886407701989	0.01854303428368539	0.09739571119261468	-0.06446689609775139	0.001963584177354729	-0.2352789631865644	0.1115586930796119	-0.06106994563548765	-0.01822535529595673	-29.7594149860273	-9.064216994527566	-23.39688606399053	-1.231194318596243	0.375834687536426	-610.7547714229812	58.94706785811287	-1.538196235024042	-1.620156766593515	-0.8156927323702533	8.829154216785309	-0.1307169814970551	2.072413599447602	-5.734015733839789	9.360824109005803	9.360824109005328	-2.142293629703879	0.2994640414422948	2.622457991096653	0.5957480799993412	6.649491124935408e-08	-1.780572310873656e-08	-4.564922265008874e-07	2.605991617224056e-07	6.564439713428867e-08	-2.181858207363295e-07	-3.505288483412844e-07
0.04	-0.003450243822506021	0.1276581285338385	0.9333888896492166	0.200913314312553	-0.2201466975766041	-0.2391037038675518	-0.2952742613037176	0.2390835419049501	0.2390835419049484	0.1130527783665739	0.1679123425031517	0.09154452662748688	0.07445838341345992	-0.06509440374916727	-0.06734422788539622	-0.03330252825510274	0.3673368711496832	-0.005712492085851273	0.08498623496649282	-0.2377794458186219	0.3877428808304624	0.3877428808304615	-0.0885716250263596	0.01397190330687847	0.1081941045196736	0.02415317542576644	0.09185744198684889	-0.06142393008197237	0.002347310840186933	-0.2295974109357616	0.1041024573401046	-0.05980692959076507	-0.01366280637480028	-29.79588347050664	-11.31679341384972	-23.16200525627995	-1.360890957040506	1.464042779682352	-609.9501036909547	58.20297322194548	-1.639297418096126	-1.582739599263232	-0.842189141438603	8.816420669083421	-0.1876412753911373	2.000131206999099	-5.341044035062164	9.241342875295034	9.241342875294997	-1.976033783386861	0.3560637353118526	2.572264933223202	0.5124544545057097	7.022340343650043e-08	-2.749312896861649e-08	-4.729796099348667e-07	2.471299632133769e-07	7.561801244146095e-08	-3.143647546861709e-07	-3.43440535399188e-07
0.05	-0.004177932759904656	0.1269068313735779	0.9330144172072767	0.2050153853493818	-0.220211925241599	-0.2381544628237253	-0.2979199204369537	0.2434135624364281	0.2434135624364241	0.1120684271663005	0.1680670031148129	0.0927526417659011	0.07472643054647489	-0.08037672895432897	-0.08280880434152935	-0.0416078516590169	0.4526279445745879	-0.007328254756258618	0.1047564132813032	-0.2909565727178312	0.4778002359369802	0.4778002359369538	-0.1081523714497973	0.01690275784728729	0.1333194492657203	0.02943412002342598	0.08710067456098435	-0.05772531585255366	0.00260690547699397	-0.2269306589783138	0.1012640256122784	-0.05988186323372206	-0.009588833968359297	-29.84003032120496	-12.17028758178941	-23.35705339706111	-1.314873160375308	1.33337920977169	-609.4335671716231	56.74565111472832	-1.462693167604328	-1.512341490799489	-0.8271513189451816	8.318044395280179	-0.1478410059039705	1.949681772104809	-5.246675800789156	8.818769324317229	8.818769324313577	-1.927207548770147	0.2530280536570961	2.466255195761549	0.5325507193722049	6.285112540288524e-08	-3.668860118598093e-08	-3.959796371999948e-07	2.077572430484479e-07	7.736748750689973e-08	-3.959828029897643e-07	-2.855359749775391e-07
0.06	-0.00505644356852791	0.1260040834843536	0.9325564020554822	0.2099568858636792	-0.2202931699819055	-0.237010675871075	-0.301085476595869	0.2486303240181669	0.2486303240181651	0.110892646006408	0.1682492586199293	0.09420872754186872	0.07504661437686172	-0.09525877799462401	-0.09763437367811824	-0.05001107022601987	0.5352227666429357	-0.008915907148204769	0.1238954167314257	-0.3417588509545961	0.5650910908829808	0.5650910908829363	-0.1268576169511527	0.01949088199776426	0.1577882320304124	0.03458051490013087	0.08234390713512779	-0.05402670162313166	0.002866500113806483	-0.22426390702086	0.09842559388445622	-0.05995679687667397	-0.005514861561914336	-29.89004074593283	-12.95802153183255	-23.55562899992006	-1.251111403519629	1.203988761083364	-607.8794673940424	55.08331021381301	-1.559242185122803	-1.454938175354385	-0.8617681740563676	8.277170397772023	-0.1820192196988936	1.873896234061514	-4.86607430257332	8.688042843191592	8.68804284319306	-1.800933598970414	0.287517657325483	2.44095253695226	0.4855445103147832	5.501144651786957e-08	-4.586336040787101e-08	-3.150433547316977e-07	1.672938482874811e-07	7.877068298321289e-08	-4.769877613714103e-07	-2.25491783083067e-07
